<svg width="512" height="512" viewBox="0 0 512 512" xmlns="http://www.w3.org/2000/svg">
  <!-- Background circle -->
  <circle cx="256" cy="256" r="240" fill="#f5f3ef"/>

  <!-- Pie segments (donut chart style) -->
  <!-- Sleep: 30% - indigo -->
  <path d="M256,256 L256,40 A216,216 0 0,1 469.5,336.5 Z" fill="#5c6bc0"/>

  <!-- Study: 25% - bright blue -->
  <path d="M256,256 L469.5,336.5 A216,216 0 0,1 148.5,447 Z" fill="#5ba0d0"/>

  <!-- Social: 20% - soft red -->
  <path d="M256,256 L148.5,447 A216,216 0 0,1 42.5,175.5 Z" fill="#e57373"/>

  <!-- Personal: 15% - purple -->
  <path d="M256,256 L42.5,175.5 A216,216 0 0,1 148.5,65 Z" fill="#9575cd"/>

  <!-- Other: 10% - orange -->
  <path d="M256,256 L148.5,65 A216,216 0 0,1 256,40 Z" fill="#ffb74d"/>

  <!-- Center circle (donut hole) -->
  <circle cx="256" cy="256" r="120" fill="#faf8f5"/>
</svg>